<svg xmlns="http://www.w3.org/2000/svg" xmlns:xlink="http://www.w3.org/1999/xlink" width="79" height="79" viewBox="0 0 79 79">
  <defs>
    <filter id="União_54" x="0" y="0" width="79" height="79" filterUnits="userSpaceOnUse">
      <feOffset input="SourceAlpha"/>
      <feGaussianBlur stdDeviation="3" result="blur"/>
      <feFlood flood-opacity="0.161"/>
      <feComposite operator="in" in2="blur"/>
      <feComposite in="SourceGraphic"/>
    </filter>
    <linearGradient id="linear-gradient" x1="0.5" x2="0.5" y2="1" gradientUnits="objectBoundingBox">
      <stop offset="0" stop-color="#f1cc00"/>
      <stop offset="1" stop-color="#f19900"/>
    </linearGradient>
    <filter id="Caminho_114" x="24.656" y="23.297" width="28.923" height="35.961" filterUnits="userSpaceOnUse">
      <feOffset dy="3" input="SourceAlpha"/>
      <feGaussianBlur stdDeviation="0.5" result="blur-2"/>
      <feFlood flood-opacity="0.161"/>
      <feComposite operator="in" in2="blur-2"/>
      <feComposite in="SourceGraphic"/>
    </filter>
    <linearGradient id="linear-gradient-2" x1="0.5" x2="0.5" y2="1" gradientUnits="objectBoundingBox">
      <stop offset="0" stop-color="#f6c266"/>
      <stop offset="1" stop-color="#f9eb99"/>
    </linearGradient>
  </defs>
  <g id="Grupo_543" data-name="Grupo 543" transform="translate(-8374 -2585)">
    <g transform="matrix(1, 0, 0, 1, 8374, 2585)" filter="url(#União_54)">
      <path id="União_54-2" data-name="União 54" d="M0,30.5A30.517,30.517,0,0,1,42.115,2.289,9.056,9.056,0,0,1,55.932,13.658,30.5,30.5,0,1,1,0,30.5Z" transform="translate(9 9)" fill="#fff"/>
    </g>
    <path id="Caminho_415" data-name="Caminho 415" d="M9.711-3.844a.2.2,0,0,1,.222.222v.93a.2.2,0,0,1-.222.222H6.034a.078.078,0,0,0-.089.089V1.206a.2.2,0,0,1-.222.222h-.93a.2.2,0,0,1-.222-.222V-2.382a.078.078,0,0,0-.089-.089H.807a.2.2,0,0,1-.222-.222v-.93a.2.2,0,0,1,.222-.222H4.483a.078.078,0,0,0,.089-.089V-7.7a.2.2,0,0,1,.222-.222h.93a.2.2,0,0,1,.222.222v3.766a.078.078,0,0,0,.089.089Z" transform="translate(8425.893 2606.32)"/>
    <path id="Subtração_5" data-name="Subtração 5" d="M28.5,57A28.508,28.508,0,0,1,17.407,2.24a28.6,28.6,0,0,1,21.316-.351A9.026,9.026,0,0,0,46.075,16.15a8.943,8.943,0,0,0,6.555-2.822A28.491,28.491,0,0,1,28.5,57Z" transform="translate(8385 2596)" fill="url(#linear-gradient)"/>
    <g id="Grupo_542" data-name="Grupo 542" transform="translate(8400.156 2608.297)">
      <g transform="matrix(1, 0, 0, 1, -26.16, -23.3)" filter="url(#Caminho_114)">
        <path id="Caminho_114-2" data-name="Caminho 114" d="M3.7,3.772A13.029,13.029,0,0,1,22.126,22.2l-9.213,9.213L3.7,22.2A13.384,13.384,0,0,1,3.7,3.772Z" transform="translate(26.13 23.35)" fill="#fff" fill-rule="evenodd"/>
      </g>
      <circle id="Elipse_103" data-name="Elipse 103" cx="8" cy="8" r="8" transform="translate(4.844 4.703)" fill="url(#linear-gradient-2)"/>
    </g>
  </g>
</svg>
