<svg xmlns="http://www.w3.org/2000/svg" width="310" height="36" viewBox="0 0 310 36">
  <g id="Grupo_858" data-name="Grupo 858" transform="translate(-25 -587)">
    <rect id="Retângulo_119" data-name="Retângulo 119" width="310" height="36" transform="translate(25 587)" fill="#dedede"/>
    <text id="Continuar_com_GOOGLE" data-name="Continuar com GOOGLE" transform="translate(180 611)" fill="#6d6d6d" font-size="14" font-family="Barlow-SemiBold, Barlow" font-weight="600" letter-spacing="0.015em"><tspan x="-80.85" y="0">CONTINUAR COM GOOGLE</tspan></text>
    <g id="brands-and-logotypes" transform="translate(38.81 594)">
      <path id="Caminho_625" data-name="Caminho 625" d="M5.028,106.743a5.664,5.664,0,0,1,.8-2.911v-3.617H2.213a10.733,10.733,0,0,0,0,13.056H5.83v-3.617A5.664,5.664,0,0,1,5.028,106.743Z" transform="translate(0 -96.016)" fill="#fbbd00"/>
      <path id="Caminho_626" data-name="Caminho 626" d="M198.514,373.759,196,376.273l2.514,2.514a10.646,10.646,0,0,0,6.528-2.214v-3.613h-3.613A5.7,5.7,0,0,1,198.514,373.759Z" transform="translate(-187.787 -357.332)" fill="#0f9d58"/>
      <path id="Caminho_627" data-name="Caminho 627" d="M56.44,325.477l-3.617,3.617a10.9,10.9,0,0,0,.929,1.057,10.657,10.657,0,0,0,7.585,3.142v-5.028A5.7,5.7,0,0,1,56.44,325.477Z" transform="translate(-50.61 -311.838)" fill="#31aa52"/>
      <path id="Caminho_628" data-name="Caminho 628" d="M266.727,199.783a10.818,10.818,0,0,0-.176-1.943l-.094-.515H256v5.028h5.089a5.673,5.673,0,0,1-2.174,2.331l3.613,3.613a10.9,10.9,0,0,0,1.057-.929A10.657,10.657,0,0,0,266.727,199.783Z" transform="translate(-245.273 -189.055)" fill="#3c79e6"/>
      <path id="Caminho_629" data-name="Caminho 629" d="M202.544,6.7l.444.444,3.556-3.556-.444-.444A10.657,10.657,0,0,0,198.514,0L196,2.514l2.514,2.514A5.662,5.662,0,0,1,202.544,6.7Z" transform="translate(-187.787 0)" fill="#cf2d48"/>
      <path id="Caminho_630" data-name="Caminho 630" d="M61.336,5.028V0a10.657,10.657,0,0,0-7.585,3.142A10.89,10.89,0,0,0,52.822,4.2l3.617,3.617a5.7,5.7,0,0,1,4.9-2.788Z" transform="translate(-50.609 0)" fill="#eb4132"/>
    </g>
  </g>
</svg>
