<svg xmlns="http://www.w3.org/2000/svg" width="18.11" height="18.111" viewBox="0 0 18.11 18.111">
  <g id="fields" transform="translate(0 0)">
    <g id="Grupo_813" data-name="Grupo 813" transform="translate(8.489 0)">
      <g id="Grupo_812" data-name="Grupo 812" transform="translate(0 0)">
        <path id="Caminho_607" data-name="Caminho 607" d="M240,.525V1.587a.531.531,0,0,0,1.061,0V.525A.531.531,0,0,0,240,.525Z" transform="translate(-240 0)" fill="#db541e"/>
      </g>
    </g>
    <g id="Grupo_815" data-name="Grupo 815" transform="translate(14.861 7.499)">
      <g id="Grupo_814" data-name="Grupo 814">
        <path id="Caminho_608" data-name="Caminho 608" d="M421.727,212h-1.061a.531.531,0,0,0,0,1.061h1.061A.531.531,0,0,0,421.727,212Z" transform="translate(-420.14 -212)" fill="#db541e"/>
      </g>
    </g>
    <g id="Grupo_817" data-name="Grupo 817" transform="translate(1.066 7.499)">
      <g id="Grupo_816" data-name="Grupo 816">
        <path id="Caminho_609" data-name="Caminho 609" d="M31.727,212H30.665a.531.531,0,0,0,0,1.061h1.061A.531.531,0,0,0,31.727,212Z" transform="translate(-30.14 -212)" fill="#db541e"/>
      </g>
    </g>
    <g id="Grupo_819" data-name="Grupo 819" transform="translate(14.002 3.701)">
      <g id="Grupo_818" data-name="Grupo 818">
        <path id="Caminho_610" data-name="Caminho 610" d="M397.034,104.721l-.919.531a.531.531,0,0,0,.531.919l.919-.531A.531.531,0,0,0,397.034,104.721Z" transform="translate(-395.849 -104.643)" fill="#db541e"/>
      </g>
    </g>
    <g id="Grupo_821" data-name="Grupo 821" transform="translate(11.672 0.987)">
      <g id="Grupo_820" data-name="Grupo 820">
        <path id="Caminho_611" data-name="Caminho 611" d="M330.577,28.182l-.531.919a.531.531,0,0,0,.919.531l.531-.919A.531.531,0,0,0,330.577,28.182Z" transform="translate(-329.975 -27.914)" fill="#db541e"/>
      </g>
    </g>
    <g id="Grupo_823" data-name="Grupo 823" transform="translate(4.768 0.986)">
      <g id="Grupo_822" data-name="Grupo 822">
        <path id="Caminho_612" data-name="Caminho 612" d="M136.331,29.081l-.531-.919a.531.531,0,0,0-.919.531l.531.919A.531.531,0,0,0,136.331,29.081Z" transform="translate(-134.803 -27.893)" fill="#db541e"/>
      </g>
    </g>
    <g id="Grupo_825" data-name="Grupo 825" transform="translate(2.053 3.701)">
      <g id="Grupo_824" data-name="Grupo 824">
        <path id="Caminho_613" data-name="Caminho 613" d="M59.761,105.256l-.919-.531a.531.531,0,0,0-.531.919l.919.531A.531.531,0,0,0,59.761,105.256Z" transform="translate(-58.043 -104.647)" fill="#db541e"/>
      </g>
    </g>
    <g id="Grupo_827" data-name="Grupo 827" transform="translate(4.245 3.178)">
      <g id="Grupo_826" data-name="Grupo 826">
        <path id="Caminho_614" data-name="Caminho 614" d="M124.775,89.86A4.848,4.848,0,0,0,120,94.711a2.908,2.908,0,0,0,.042.531h9.466a2.908,2.908,0,0,0,.042-.531A4.848,4.848,0,0,0,124.775,89.86Z" transform="translate(-120 -89.86)" fill="#db541e"/>
      </g>
    </g>
    <g id="Grupo_829" data-name="Grupo 829" transform="translate(11.613 9.621)">
      <g id="Grupo_828" data-name="Grupo 828">
        <path id="Caminho_615" data-name="Caminho 615" d="M329.133,272h-.808l2.425,8.489h3.233Z" transform="translate(-328.325 -272)" fill="#db541e"/>
      </g>
    </g>
    <g id="Grupo_831" data-name="Grupo 831" transform="translate(0.838 9.621)">
      <g id="Grupo_830" data-name="Grupo 830">
        <path id="Caminho_616" data-name="Caminho 616" d="M28.552,272,23.7,280.489h3.233L29.36,272Z" transform="translate(-23.701 -272)" fill="#db541e"/>
      </g>
    </g>
    <g id="Grupo_833" data-name="Grupo 833" transform="translate(13.643 9.621)">
      <g id="Grupo_832" data-name="Grupo 832">
        <path id="Caminho_617" data-name="Caminho 617" d="M389.647,272H385.71l4.467,7.818v-7.287A.525.525,0,0,0,389.647,272Z" transform="translate(-385.71 -272)" fill="#db541e"/>
      </g>
    </g>
    <g id="Grupo_835" data-name="Grupo 835" transform="translate(5.175 9.621)">
      <g id="Grupo_834" data-name="Grupo 834">
        <path id="Caminho_618" data-name="Caminho 618" d="M148.738,272l-2.426,8.489h3.314V272Z" transform="translate(-146.312 -272)" fill="#db541e"/>
      </g>
    </g>
    <g id="Grupo_837" data-name="Grupo 837" transform="translate(0 9.621)">
      <g id="Grupo_836" data-name="Grupo 836">
        <path id="Caminho_619" data-name="Caminho 619" d="M.531,272a.525.525,0,0,0-.531.531v7.287L4.467,272Z" transform="translate(0 -272)" fill="#db541e"/>
      </g>
    </g>
    <g id="Grupo_839" data-name="Grupo 839" transform="translate(9.55 9.621)">
      <g id="Grupo_838" data-name="Grupo 838">
        <path id="Caminho_620" data-name="Caminho 620" d="M270.959,272H270v8.489h3.384Z" transform="translate(-270 -272)" fill="#db541e"/>
      </g>
    </g>
  </g>
</svg>
