<svg id="Grupo_841" data-name="Grupo 841" xmlns="http://www.w3.org/2000/svg" width="18.343" height="18" viewBox="0 0 18.343 18">
  <path id="Caminho_624" data-name="Caminho 624" d="M11.174,7.142H12.1V3.531h1.818V.422A.416.416,0,0,1,14.337,0a.411.411,0,0,1,.4.422v3.11h1.818V7.142h.922v9.567h.87V18H0V16.709H.843V6.958h.474V6.009h.4V4.3h.87V2a.444.444,0,0,1,.448-.448h0A.429.429,0,0,1,3.479,2V4.3h.87V6.009H4.77v.949h.448v9.751H5.9V8.75h.87V6.878H9.408V8.75h.87v7.959h.9ZM8.486,9.54h.949v.949H8.486Zm0,5.139h.949v.949H8.486Zm-1.713,0H7.7v.949H6.773Zm1.713-1.713h.949v.949H8.486Zm-1.713,0H7.7v.949H6.773Zm1.713-1.713h.949V12.2H8.486Zm-1.713,0H7.7V12.2H6.773Zm0-1.713H7.7v.949H6.773ZM3.426,7.8h.949v.975H3.426Zm0,6.931h.949v.975H3.426Zm-1.713,0h.922v.975H1.713Zm1.713-3.479h.949v.975H3.426Zm0,1.739h.949v.975H3.426Zm-1.713,0h.922v.975H1.713Zm0-1.739h.922v.975H1.713ZM3.426,9.54h.949v.949H3.426Zm-1.713,0h.922v.949H1.713Zm0-1.739h.922v.975H1.713ZM14.732,4.428h.922v.949h-.922Zm0,1.739h.922v.949h-.922Zm-1.739,0h.922v.949h-.922Zm0-1.739h.922v.949h-.922Zm-.87,3.531h.949v.949h-.949Zm3.452,6.878h.949v.975h-.949Zm0-1.713h.949v.949h-.949Zm0-1.739h.949v.975h-.949Zm0-1.713h.949v.975h-.949Zm-1.713,5.165h.922v.975h-.922Zm0-1.713h.922v.949h-.922Zm0-1.739h.922v.975h-.922Zm0-1.713h.922v.975h-.922Zm-1.739,5.165h.949v.975h-.949Zm0-1.713h.949v.949h-.949Zm0-1.739h.949v.975h-.949Zm0-1.713h.949v.975h-.949Zm3.452-1.713h.949v.949h-.949Zm-1.713,0h.922v.949h-.922Z" fill="#db541e" fill-rule="evenodd"/>
</svg>
