<svg xmlns="http://www.w3.org/2000/svg" width="69" height="50.644" viewBox="0 0 69 50.644">
  <g id="Grupo_540" data-name="Grupo 540" transform="translate(-1.824 -4)">
    <text id="Compartilhar" transform="translate(1.824 52.644)" fill="#a7a7a7" font-size="12" font-family="Barlow-Regular, Barlow"><tspan x="0" y="0">Compartilhar</tspan></text>
    <path id="União_53" data-name="União 53" d="M0,30.337V27.576c0-3.038,4.907-5.522,10.906-5.522s10.9,2.485,10.9,5.522v2.761ZM5.453,13.771a5.453,5.453,0,1,1,5.453,5.521A5.487,5.487,0,0,1,5.453,13.771Zm18.981,4.18A11.519,11.519,0,0,0,20.29,2.289L21.595,0a14.018,14.018,0,0,1,6.492,8.567,14.194,14.194,0,0,1-1.392,10.706Zm-4.2-2.458a6.59,6.59,0,0,0-2.367-8.949l1.3-2.289a9.279,9.279,0,0,1,3.324,12.561Z" transform="translate(21.824 4)" fill="#6d6d6d"/>
  </g>
</svg>
