<svg xmlns="http://www.w3.org/2000/svg" width="20.545" height="20.545" viewBox="0 0 20.545 20.545">
  <path id="Caminho_601" data-name="Caminho 601" d="M31.063,20.018l-2.212-.937a7.119,7.119,0,0,0-.685-1.667l.9-2.184a.79.79,0,0,0-.172-.859l-.74-.74a.79.79,0,0,0-.859-.172l-2.184.9a7.109,7.109,0,0,0-1.667-.685l-.916-2.186A.79.79,0,0,0,21.8,11H20.746a.79.79,0,0,0-.728.482l-.937,2.212a7.119,7.119,0,0,0-1.667.685l-2.184-.9a.79.79,0,0,0-.859.172l-.74.74a.79.79,0,0,0-.172.859l.9,2.184a7.109,7.109,0,0,0-.685,1.667l-2.186.916a.79.79,0,0,0-.485.729V21.8a.79.79,0,0,0,.482.728l2.212.937a7.119,7.119,0,0,0,.685,1.667l-.9,2.184a.79.79,0,0,0,.172.859l.74.74a.79.79,0,0,0,.859.172l2.184-.9a7.109,7.109,0,0,0,1.667.685l.916,2.186a.79.79,0,0,0,.729.485H21.8a.79.79,0,0,0,.728-.482l.937-2.212a7.119,7.119,0,0,0,1.667-.685l2.184.9a.79.79,0,0,0,.859-.172l.74-.74a.79.79,0,0,0,.172-.859l-.9-2.184a7.109,7.109,0,0,0,.685-1.667l2.186-.916a.79.79,0,0,0,.485-.729V20.746A.79.79,0,0,0,31.063,20.018Zm-9.791,6.031a4.777,4.777,0,1,1,4.777-4.777A4.777,4.777,0,0,1,21.273,26.049Z" transform="translate(-11 -11)" fill="#fff"/>
</svg>
