<svg xmlns="http://www.w3.org/2000/svg" width="38" height="38" viewBox="0 0 38 38">
  <g id="Grupo_893" data-name="Grupo 893" transform="translate(-16 -1278)">
    <rect id="Retângulo_1593" data-name="Retângulo 1593" width="38" height="38" rx="19" transform="translate(16 1278)" fill="#eee"/>
    <path id="Caminho_396" data-name="Caminho 396" d="M14.674,290.381a3.96,3.96,0,1,0,3.96,3.96A3.96,3.96,0,0,0,14.674,290.381Zm-9,2.16a2.88,2.88,0,0,0,0,5.76,2.9,2.9,0,1,0,0-5.76Zm-1.44,6.84a3.4,3.4,0,0,0-3.24,3.6v3.24h4.68v-1.8a6.457,6.457,0,0,1,2.52-5.04c-.309-.1-.375,0-.72,0Zm7.56,1.08a3.959,3.959,0,0,0-3.96,3.96v3.96h14.04v-3.96a3.959,3.959,0,0,0-3.96-3.96Z" transform="translate(24.005 997.619)"/>
  </g>
</svg>
