<svg xmlns="http://www.w3.org/2000/svg" width="23.024" height="22" viewBox="0 0 23.024 22">
  <path id="Caminho_402" data-name="Caminho 402" d="M27.974,15.329a1.046,1.046,0,0,0-.845-.712l-6.687-.972L17.451,7.586a1.046,1.046,0,0,0-1.877,0l-2.991,6.059L5.9,14.617a1.047,1.047,0,0,0-.58,1.785l4.839,4.717-1.143,6.66a1.046,1.046,0,0,0,1.518,1.1l5.981-3.144,5.981,3.144a1.047,1.047,0,0,0,1.519-1.1l-1.142-6.66L27.709,16.4A1.046,1.046,0,0,0,27.974,15.329ZM21.015,20a1.047,1.047,0,0,0-.3.926l.877,5.112L17,23.629a1.046,1.046,0,0,0-.974,0l-4.591,2.414.877-5.112a1.047,1.047,0,0,0-.3-.926L8.3,16.383l5.133-.746a1.047,1.047,0,0,0,.788-.573l2.3-4.651,2.3,4.651a1.046,1.046,0,0,0,.788.573l5.133.746Z" transform="translate(-5.001 -7.002)" fill="#a7a7a7"/>
</svg>
