<svg xmlns="http://www.w3.org/2000/svg" width="19.436" height="26.203" viewBox="0 0 19.436 26.203">
  <path id="Caminho_527" data-name="Caminho 527" d="M32.885,7.337a9.71,9.71,0,1,0-16.822,9.7l5.89,10.181a2.918,2.918,0,0,0,5.052,0l5.879-10.181A9.616,9.616,0,0,0,32.885,7.337Zm-1.555,8.8-5.879,10.2a1.12,1.12,0,0,1-1.93,0l-5.89-10.2a7.908,7.908,0,1,1,13.7,0ZM28.123,8.352A5.115,5.115,0,0,1,29.631,12a5.175,5.175,0,0,1-.251,1.59.9.9,0,0,1-1.707-.551,3.359,3.359,0,1,0-3.193,2.311,3.418,3.418,0,0,0,1.043-.163l.129-.047a.9.9,0,0,1,.626,1.682l-.2.072a5.151,5.151,0,1,1,2.043-8.549Z" transform="translate(-14.763 -2.478)" fill="#f6e066"/>
</svg>
