<svg id="Grupo_618" data-name="Grupo 618" xmlns="http://www.w3.org/2000/svg" width="30.825" height="26.802" viewBox="0 0 30.825 26.802">
  <path id="Caminho_311" data-name="Caminho 311" d="M264.91,41.62a3.21,3.21,0,1,0-3.21-3.21A3.211,3.211,0,0,0,264.91,41.62Zm0-4.709a1.5,1.5,0,1,1-1.5,1.5A1.5,1.5,0,0,1,264.91,36.911Z" transform="translate(-245.942 -35.2)" fill="#f6e066"/>
  <path id="Caminho_312" data-name="Caminho 312" d="M7.54,294.3a5.54,5.54,0,1,0,5.54,5.54A5.542,5.542,0,0,0,7.54,294.3Zm0,9.363a3.823,3.823,0,1,1,3.823-3.823A3.826,3.826,0,0,1,7.54,303.663Z" transform="translate(-2 -278.578)" fill="#f6e066"/>
  <path id="Caminho_313" data-name="Caminho 313" d="M332.94,294.3a5.54,5.54,0,1,0,5.54,5.54A5.546,5.546,0,0,0,332.94,294.3Zm0,9.363a3.823,3.823,0,1,1,3.823-3.823A3.826,3.826,0,0,1,332.94,303.663Z" transform="translate(-307.655 -278.578)" fill="#f6e066"/>
  <path id="Caminho_314" data-name="Caminho 314" d="M141.057,135.244a2.571,2.571,0,0,0,1.869.807c.042,0,5.346-.406,5.346-.406a2.5,2.5,0,0,0,2.36-2.761,2.471,2.471,0,0,0-2.761-2.36l-3.932.3-3.92-4.053a3.444,3.444,0,0,0-1.984-.674,3.56,3.56,0,0,0-2.894,1.5l-2.852,3.811a3.7,3.7,0,0,0,.892,5.3l3.119,2.276.328,5.115a2.582,2.582,0,0,0,2.561,2.409c1.3,0,2.548-1.013,2.548-3l-.382-6.031a2.552,2.552,0,0,0-1.025-1.893l-1.644-1.232.661-.9Zm-2.47-3.647-1.772,2.415a.852.852,0,0,0,.176,1.189l2.324,1.735a.848.848,0,0,1,.34.631l.382,6.032c0,.977-.419,1.183-.837,1.183a.851.851,0,0,1-.849-.8L138,138.466a.863.863,0,0,0-.352-.637l-3.453-2.512a2.031,2.031,0,0,1-.51-2.9l2.852-3.811a1.635,1.635,0,0,1,2.336-.57L143,132.308a.861.861,0,0,0,.68.261l4.333-.334a.859.859,0,0,1,.916.789.835.835,0,0,1-.789.922l-5.237.4a.873.873,0,0,1-.6-.267l-2.4-2.555A.977.977,0,0,0,138.588,131.6Z" transform="translate(-123.685 -120.584)" fill="#f6e066"/>
</svg>
