<svg xmlns="http://www.w3.org/2000/svg" width="32.397" height="23.019" viewBox="0 0 32.397 23.019">
  <path id="União_66" data-name="União 66" d="M-10337-1707.181a4.812,4.812,0,0,1-5-4.592,4.8,4.8,0,0,1,4.891-4.589,7.635,7.635,0,0,1,7.561-5.587,8.233,8.233,0,0,1,3.105.6,5.784,5.784,0,0,1,5.586-3.854,5.62,5.62,0,0,1,5.833,5.365,5.365,5.365,0,0,1-3.464,4.893,4.387,4.387,0,0,1,1.387,3.169,4.812,4.812,0,0,1-4.994,4.592Zm-3.357-4.592a3.235,3.235,0,0,0,3.357,3.087h14.908a3.235,3.235,0,0,0,3.357-3.087,3.2,3.2,0,0,0-3.066-3.072v1.115a.786.786,0,0,1-.818.751.786.786,0,0,1-.817-.751v-.754c0-.009,0-.017,0-.028h0v-.316a5.884,5.884,0,0,0-6.108-5.615,5.885,5.885,0,0,0-6.109,5.615v1.1a.787.787,0,0,1-.817.754.788.788,0,0,1-.818-.754v-1.115A3.2,3.2,0,0,0-10340.362-1711.772Zm15.385-8.791a7.122,7.122,0,0,1,2.987,4.2,5.4,5.4,0,0,1,1.758.336,3.98,3.98,0,0,0,3.571-3.809,4.046,4.046,0,0,0-4.2-3.86A4.123,4.123,0,0,0-10324.978-1720.563Zm10.778,7.914-1.688-1.553a.709.709,0,0,1,0-1.064.87.87,0,0,1,1.156,0l1.689,1.553a.711.711,0,0,1,0,1.064.858.858,0,0,1-.579.22A.857.857,0,0,1-10314.2-1712.649Zm1.186-6.435a.787.787,0,0,1-.817-.751.787.787,0,0,1,.817-.754h2.389a.789.789,0,0,1,.822.754.789.789,0,0,1-.822.751Zm-2.874-5.32a.712.712,0,0,1,0-1.067l1.688-1.553a.872.872,0,0,1,1.157,0,.714.714,0,0,1,0,1.067l-1.689,1.553a.857.857,0,0,1-.578.22A.854.854,0,0,1-10315.888-1724.4Zm-11.1,0-1.686-1.553a.712.712,0,0,1,0-1.067.869.869,0,0,1,1.155,0l1.689,1.553a.714.714,0,0,1,0,1.067.856.856,0,0,1-.579.22A.86.86,0,0,1-10326.99-1724.4Zm5.312-2.648v-2.2a.788.788,0,0,1,.82-.751.787.787,0,0,1,.818.751v2.2a.789.789,0,0,1-.818.754A.788.788,0,0,1-10321.679-1727.052Z" transform="translate(10342.101 1730.099)" fill="#f6e066" stroke="#f6e066" stroke-width="0.2"/>
</svg>
