<svg xmlns="http://www.w3.org/2000/svg" width="21.8" height="22.4" viewBox="0 0 21.8 22.4">
  <path id="União_67" data-name="União 67" d="M2.87,22.4A2.888,2.888,0,0,1,0,19.507V5.866A2.888,2.888,0,0,1,2.87,2.972H5.819V.77a.763.763,0,1,1,1.527,0v2.2h7.109V.77a.764.764,0,1,1,1.527,0v2.2H18.93A2.888,2.888,0,0,1,21.8,5.866V19.507A2.888,2.888,0,0,1,18.93,22.4ZM1.527,19.507A1.354,1.354,0,0,0,2.87,20.861H18.93a1.354,1.354,0,0,0,1.343-1.353v-9.5H1.527Zm0-13.642V8.44h18.72V5.866A1.354,1.354,0,0,0,18.9,4.512H15.955V5.573a.764.764,0,1,1-1.527,0V4.512H7.346V5.573a.764.764,0,1,1-1.527,0V4.512H2.87A1.354,1.354,0,0,0,1.527,5.866ZM15.56,19.189a.77.77,0,0,1,0-1.539h2.291a.77.77,0,0,1,0,1.539Zm-5.424,0a.77.77,0,0,1,0-1.539h2.291a.77.77,0,0,1,0,1.539Zm-5.424,0a.77.77,0,0,1,0-1.539H7a.77.77,0,0,1,0,1.539ZM15.56,14.6a.77.77,0,0,1,0-1.539h2.291a.77.77,0,0,1,0,1.539Zm-5.424,0a.77.77,0,0,1,0-1.539h2.291a.77.77,0,0,1,0,1.539Z" fill="#f6e066"/>
</svg>
