<svg xmlns="http://www.w3.org/2000/svg" width="13.221" height="28.331" viewBox="0 0 13.221 28.331">
  <g id="Grupo_616" data-name="Grupo 616" transform="translate(-4.761 -280.596)">
    <path id="Caminho_526" data-name="Caminho 526" d="M5.707.529a.944.944,0,0,0-.945.944V12.805a.944.944,0,0,0,.945.945H6.916l.967,2.9a6.609,6.609,0,1,0,6.983,0l.967-2.9h1.21a.944.944,0,0,0,.941-.945V1.474a.944.944,0,0,0-.941-.944Zm.944,1.889H8.54v9.443H6.651Zm3.778,0h1.89v9.443H10.43Zm3.778,0H16.1v9.443h-1.89ZM8.906,13.75h4.936l-.711,2.134a6.411,6.411,0,0,0-3.513,0Zm2.468,3.778a4.721,4.721,0,1,1-4.723,4.723A4.71,4.71,0,0,1,11.374,17.529Z" transform="translate(0 280.067)" fill="#f6e066"/>
  </g>
</svg>
