<svg xmlns="http://www.w3.org/2000/svg" xmlns:xlink="http://www.w3.org/1999/xlink" width="20" height="28" viewBox="0 0 20 28">
  <defs>
    <filter id="Caminho_654" x="0" y="8" width="20" height="20" filterUnits="userSpaceOnUse">
      <feOffset input="SourceAlpha"/>
      <feGaussianBlur stdDeviation="1" result="blur"/>
      <feFlood flood-opacity="0.259"/>
      <feComposite operator="in" in2="blur"/>
      <feComposite in="SourceGraphic"/>
    </filter>
    <filter id="Caminho_647" x="0" y="0" width="20" height="14" filterUnits="userSpaceOnUse">
      <feOffset input="SourceAlpha"/>
      <feGaussianBlur stdDeviation="1" result="blur-2"/>
      <feFlood flood-opacity="0.259"/>
      <feComposite operator="in" in2="blur-2"/>
      <feComposite in="SourceGraphic"/>
    </filter>
  </defs>
  <g id="Grupo_891" data-name="Grupo 891" transform="translate(-8243 -2524)">
    <g transform="matrix(1, 0, 0, 1, 8243, 2524)" filter="url(#Caminho_654)">
      <g id="Caminho_654-2" data-name="Caminho 654" transform="translate(3 11)" fill="#fff">
        <path d="M 7 13.39999961853027 C 3.471029996871948 13.39999961853027 0.6000000238418579 10.52896976470947 0.6000000238418579 7 C 0.6000000238418579 3.471029996871948 3.471029996871948 0.6000000238418579 7 0.6000000238418579 C 10.52896976470947 0.6000000238418579 13.39999961853027 3.471029996871948 13.39999961853027 7 C 13.39999961853027 10.52896976470947 10.52896976470947 13.39999961853027 7 13.39999961853027 Z" stroke="none"/>
        <path d="M 7 1.199999809265137 C 3.801870346069336 1.199999809265137 1.199999809265137 3.801870346069336 1.199999809265137 7 C 1.199999809265137 10.19812965393066 3.801870346069336 12.80000019073486 7 12.80000019073486 C 10.19812965393066 12.80000019073486 12.80000019073486 10.19812965393066 12.80000019073486 7 C 12.80000019073486 3.801870346069336 10.19812965393066 1.199999809265137 7 1.199999809265137 M 7 0 C 10.86598968505859 0 14 3.134010314941406 14 7 C 14 10.86598968505859 10.86598968505859 14 7 14 C 3.134010314941406 14 0 10.86598968505859 0 7 C 0 3.134010314941406 3.134010314941406 0 7 0 Z" stroke="none" fill="#db541e"/>
      </g>
    </g>
    <g transform="matrix(1, 0, 0, 1, 8243, 2524)" filter="url(#Caminho_647)">
      <path id="Caminho_647-2" data-name="Caminho 647" d="M7,0l7,8S10.5,5.488,7,5.488,0,8,0,8Z" transform="translate(3 3)" fill="#db541e"/>
    </g>
  </g>
</svg>
