<svg xmlns="http://www.w3.org/2000/svg" xmlns:xlink="http://www.w3.org/1999/xlink" width="112" height="52" viewBox="0 0 112 52">
  <defs>
    <linearGradient id="linear-gradient" x1="0.5" x2="0.5" y2="1" gradientUnits="objectBoundingBox">
      <stop offset="0" stop-color="#db541e"/>
      <stop offset="1" stop-color="#f19900"/>
    </linearGradient>
    <filter id="Caminho_320" x="0" y="0" width="112" height="52" filterUnits="userSpaceOnUse">
      <feOffset dy="3" input="SourceAlpha"/>
      <feGaussianBlur stdDeviation="3" result="blur"/>
      <feFlood flood-opacity="0.161"/>
      <feComposite operator="in" in2="blur"/>
      <feComposite in="SourceGraphic"/>
    </filter>
  </defs>
  <g id="Grupo_515" data-name="Grupo 515" transform="translate(-7748 -2465)">
    <g transform="matrix(1, 0, 0, 1, 7748, 2465)" filter="url(#Caminho_320)">
      <path id="Caminho_320-2" data-name="Caminho 320" d="M17,0H77a17,17,0,0,1,0,34H17A17,17,0,0,1,17,0Z" transform="translate(9 6)" fill="url(#linear-gradient)"/>
    </g>
    <text id="Gravar" transform="translate(7816.351 2492.025)" fill="#fff" font-size="12" font-family="Barlow-SemiBold, Barlow" font-weight="600"><tspan x="-17.25" y="0">Gravar</tspan></text>
    <path id="União_51" data-name="União 51" d="M4.1,23.9A14,14,0,0,1,23.9,4.1,14,14,0,0,1,4.1,23.9ZM2,14A12,12,0,1,0,14,2,12.014,12.014,0,0,0,2,14Zm6,0a6,6,0,1,1,6,6A6,6,0,0,1,8,14Z" transform="translate(7760 2474)" fill="#fff"/>
  </g>
</svg>
