<svg xmlns="http://www.w3.org/2000/svg" xmlns:xlink="http://www.w3.org/1999/xlink" width="64.558" height="79.194" viewBox="0 0 64.558 79.194">
  <defs>
    <filter id="Caminho_114" x="0" y="0" width="64.558" height="79.194" filterUnits="userSpaceOnUse">
      <feOffset dy="3" input="SourceAlpha"/>
      <feGaussianBlur stdDeviation="0.5" result="blur"/>
      <feFlood flood-opacity="0.161"/>
      <feComposite operator="in" in2="blur"/>
      <feComposite in="SourceGraphic"/>
    </filter>
  </defs>
  <g id="Grupo_883" data-name="Grupo 883" transform="translate(-9010 -1642.585)">
    <g transform="matrix(1, 0, 0, 1, 9010, 1642.58)" filter="url(#Caminho_114)">
      <path id="Caminho_114-2" data-name="Caminho 114" d="M8.469,8.732A29.933,29.933,0,0,1,50.8,51.064L29.635,72.23,8.469,51.064A30.75,30.75,0,0,1,8.469,8.732Z" transform="translate(2.48 1.05)" fill="#fff" stroke="#db541e" stroke-width="2" fill-rule="evenodd"/>
    </g>
    <g id="lifebuoy" transform="matrix(0.966, -0.259, 0.259, 0.966, 9019.038, 1659.38)">
      <g id="Grupo_879" data-name="Grupo 879">
        <path id="Caminho_640" data-name="Caminho 640" d="M35.661,11.192V6.977A5.433,5.433,0,0,0,30.234,1.55H26.019a18.5,18.5,0,0,0-14.828,0H6.977A5.433,5.433,0,0,0,1.55,6.977v4.215a18.5,18.5,0,0,0,0,14.827v4.215a5.433,5.433,0,0,0,5.427,5.427h4.215a18.5,18.5,0,0,0,14.828,0h4.215a5.433,5.433,0,0,0,5.427-5.427V26.019a18.5,18.5,0,0,0,0-14.827Zm-13-7.535a15.539,15.539,0,0,1,10.9,10.9l-4.607.768A10.9,10.9,0,0,0,21.89,8.264Zm-8.107,0,.769,4.607a10.9,10.9,0,0,0-7.058,7.058l-4.607-.768A15.539,15.539,0,0,1,14.552,3.657ZM3.1,6.977A3.88,3.88,0,0,1,6.977,3.1H8.338l-.023.017c-.442.294-.865.613-1.279.943-.07.056-.145.1-.214.16a18.763,18.763,0,0,0-2.6,2.6c-.052.064-.1.134-.148.2-.334.419-.656.847-.954,1.294L3.1,8.338V6.977ZM6.977,34.11A3.88,3.88,0,0,1,3.1,30.234V28.873l.017.023c.3.447.619.876.954,1.294.051.065.1.134.148.2a18.77,18.77,0,0,0,2.6,2.6c.069.056.145.1.214.16.414.33.838.648,1.279.943l.023.017H6.977Zm7.575-.556a15.539,15.539,0,0,1-10.9-10.9l4.607-.768a10.9,10.9,0,0,0,7.058,7.057Zm-3.7-14.949a7.752,7.752,0,1,1,7.752,7.752A7.761,7.761,0,0,1,10.853,18.606ZM22.659,33.554l-.769-4.607a10.9,10.9,0,0,0,7.058-7.057l4.607.768A15.539,15.539,0,0,1,22.659,33.554Zm11.451-3.32a3.88,3.88,0,0,1-3.876,3.876H28.873l.023-.017c.44-.293.862-.61,1.274-.939.072-.057.149-.107.22-.165a18.764,18.764,0,0,0,2.6-2.6c.054-.066.1-.139.154-.206.332-.416.652-.843.948-1.287l.017-.023Zm0-21.9-.017-.023c-.3-.444-.616-.871-.948-1.287-.053-.067-.1-.14-.154-.206a18.764,18.764,0,0,0-2.6-2.6c-.071-.058-.148-.108-.22-.165-.413-.329-.834-.645-1.274-.939L28.873,3.1h1.361A3.88,3.88,0,0,1,34.11,6.977Z" fill="#db541e"/>
      </g>
    </g>
  </g>
</svg>
