<svg xmlns="http://www.w3.org/2000/svg" xmlns:xlink="http://www.w3.org/1999/xlink" width="64.558" height="79.194" viewBox="0 0 64.558 79.194">
  <defs>
    <linearGradient id="linear-gradient" x1="0.7" y1="0.107" x2="0.233" y2="0.891" gradientUnits="objectBoundingBox">
      <stop offset="0" stop-color="#db541e"/>
      <stop offset="1" stop-color="#f19900"/>
    </linearGradient>
    <filter id="Caminho_114" x="0" y="0" width="64.558" height="79.194" filterUnits="userSpaceOnUse">
      <feOffset dy="3" input="SourceAlpha"/>
      <feGaussianBlur stdDeviation="0.5" result="blur"/>
      <feFlood flood-opacity="0.161"/>
      <feComposite operator="in" in2="blur"/>
      <feComposite in="SourceGraphic"/>
    </filter>
    <filter id="Caminho_641" x="13.142" y="18.343" width="38.445" height="28.428" filterUnits="userSpaceOnUse">
      <feOffset dy="1" input="SourceAlpha"/>
      <feGaussianBlur stdDeviation="0.5" result="blur-2"/>
      <feFlood flood-opacity="0.161"/>
      <feComposite operator="in" in2="blur-2"/>
      <feComposite in="SourceGraphic"/>
    </filter>
  </defs>
  <g id="Grupo_882" data-name="Grupo 882" transform="translate(-9052 -1642.585)">
    <g transform="matrix(1, 0, 0, 1, 9052, 1642.58)" filter="url(#Caminho_114)">
      <path id="Caminho_114-2" data-name="Caminho 114" d="M8.469,8.732A29.933,29.933,0,0,1,50.8,51.064L29.635,72.23,8.469,51.064A30.75,30.75,0,0,1,8.469,8.732Z" transform="translate(2.48 1.05)" stroke="#fff" stroke-width="2" fill-rule="evenodd" fill="url(#linear-gradient)"/>
    </g>
    <g id="barrier" transform="translate(9066.642 1661.428)">
      <g id="Grupo_880" data-name="Grupo 880" transform="translate(0 0)">
        <g transform="matrix(1, 0, 0, 1, -14.64, -18.84)" filter="url(#Caminho_641)">
          <path id="Caminho_641-2" data-name="Caminho 641" d="M34.289,25.124a1.16,1.16,0,0,0,1.156-1.156V12.41a1.154,1.154,0,0,0-1.156-1.156H1.156A1.156,1.156,0,0,0,0,12.41V23.968a1.154,1.154,0,0,0,1.156,1.156H2.312V29.96A3.462,3.462,0,0,0,0,33.214v2.312a1.156,1.156,0,0,0,2.312,0V33.214a1.157,1.157,0,0,1,1.156-1.156h28.51a1.157,1.157,0,0,1,1.156,1.156v2.312a1.156,1.156,0,0,0,2.312,0V33.214a3.462,3.462,0,0,0-2.312-3.254V25.124h1.156ZM14.733,13.566l9.246,9.246H20.712l-9.246-9.246ZM2.312,15.2V13.566H3.945l9.246,9.246H9.925Zm28.51,14.548H4.623V25.124h26.2v4.623Zm.678-6.935-9.246-9.246H25.52l7.613,7.613v1.634Z" transform="translate(14.64 7.59)" fill="#fff"/>
        </g>
      </g>
    </g>
  </g>
</svg>
