<svg xmlns="http://www.w3.org/2000/svg" xmlns:xlink="http://www.w3.org/1999/xlink" width="64.561" height="79.198" viewBox="0 0 64.561 79.198">
  <defs>
    <linearGradient id="linear-gradient" x1="0.341" y1="0.133" x2="0.678" y2="1.286" gradientUnits="objectBoundingBox">
      <stop offset="0" stop-color="#6d6d6d"/>
      <stop offset="1" stop-color="#dedede"/>
    </linearGradient>
    <filter id="Caminho_114" x="0" y="0" width="64.561" height="79.198" filterUnits="userSpaceOnUse">
      <feOffset dy="3" input="SourceAlpha"/>
      <feGaussianBlur stdDeviation="0.5" result="blur"/>
      <feFlood flood-opacity="0.161"/>
      <feComposite operator="in" in2="blur"/>
      <feComposite in="SourceGraphic"/>
    </filter>
    <filter id="Caminho_638" x="9.49" y="9.943" width="44.038" height="44.421" filterUnits="userSpaceOnUse">
      <feOffset dy="1" input="SourceAlpha"/>
      <feGaussianBlur stdDeviation="0.5" result="blur-2"/>
      <feFlood flood-opacity="0.161"/>
      <feComposite operator="in" in2="blur-2"/>
      <feComposite in="SourceGraphic"/>
    </filter>
  </defs>
  <g id="Grupo_885" data-name="Grupo 885" transform="translate(-9052 -1591.585)">
    <g transform="matrix(1, 0, 0, 1, 9052, 1591.58)" filter="url(#Caminho_114)">
      <path id="Caminho_114-2" data-name="Caminho 114" d="M8.469,8.732A29.935,29.935,0,0,1,50.8,51.066L29.636,72.233,8.469,51.066A30.752,30.752,0,0,1,8.469,8.732Z" transform="translate(2.47 1.05)" stroke="#fff" stroke-width="2" fill-rule="evenodd" fill="url(#linear-gradient)"/>
    </g>
    <g transform="matrix(1, 0, 0, 1, 9052, 1591.58)" filter="url(#Caminho_638)">
      <path id="Caminho_638-2" data-name="Caminho 638" d="M20.31,13.177l-.2-.172A10.241,10.241,0,0,0,7.566.357l5.8,5.8-1.522,5.686L6.16,13.366.354,7.567A10.252,10.252,0,0,0,13.44,19.987l.032.032,12.2,11.954a4.837,4.837,0,1,0,6.84-6.842Z" transform="matrix(-0.26, 0.97, -0.97, -0.26, 52.03, 19.09)" fill="#fff"/>
    </g>
  </g>
</svg>
