<svg id="_2297761600272" xmlns="http://www.w3.org/2000/svg" width="51.551" height="58.057" viewBox="0 0 51.551 58.057">
  <path id="Caminho_381" data-name="Caminho 381" d="M56156.027,10617c6.105.041,9.949,1.824,11.6,4.506,2.09,3.4.457,8.276-6.535,13.289-3.809,2.75.066,3.964,2.164,6.563,1.961,2.435,2.785,6.007-.762,10.375s-8.914,4.958-14.7,4.958c-1.711,0-9.617-.014-9.9-.007-3.031,0-4.969-.089-6.641-2.454a6.522,6.522,0,0,1-.871-6.015l4.762-16.891-6.141-.007,4.219-14.318Zm-.426,5.033h-17.914l-1.547,4.767,6.145.007-6.223,22.061c-.555,1.838,1.633,2.14,3.363,2.14h8.559c3.922,0,9.133-.967,9.906-4.684s-1.535-4.52-3.277-6.864-1.262-4.794,1.359-6.673C56161.191,10629.049,56165.258,10622.033,56155.6,10622.033Z" transform="translate(-56119.668 -10617)" fill="#fff"/>
  <g id="Grupo_493" data-name="Grupo 493" transform="translate(0 48.209)">
    <g id="Grupo_491" data-name="Grupo 491">
      <path id="Caminho_382" data-name="Caminho 382" d="M57476.906,18003.027a.675.675,0,0,0,.293.582,1.247,1.247,0,0,0,.734.213,14.408,14.408,0,0,0,2-.145l.367-.041-.211,1.406a8.977,8.977,0,0,1-2.617.4,2.593,2.593,0,0,1-1.887-.584,2.3,2.3,0,0,1-.59-1.707,8.073,8.073,0,0,1,.227-2.01,5.372,5.372,0,0,1,.68-1.59,3.2,3.2,0,0,1,1.219-1.133,3.675,3.675,0,0,1,1.777-.418q2.49,0,2.488,2.119a1.948,1.948,0,0,1-.914,1.865,6.514,6.514,0,0,1-3.031.514h-.5A2.772,2.772,0,0,0,57476.906,18003.027Zm.844-1.941a3.1,3.1,0,0,0,1.371-.213.756.756,0,0,0,.391-.727c0-.4-.238-.611-.715-.611a1.548,1.548,0,0,0-1.527,1.188,3.168,3.168,0,0,0-.105.363Z" transform="translate(-57456.438 -17995.594)" fill="#fff"/>
      <path id="Caminho_383" data-name="Caminho 383" d="M56408.906,17656.676H56407l2.227-9.676h1.906l-1.219,5.254,1.039-.1,1.8-2.572h2.1l-2.48,3.416.938,3.682h-1.945l-.687-2.941-1.117.082Z" transform="translate(-56395.762 -17647)" fill="#fff"/>
      <path id="Caminho_384" data-name="Caminho 384" d="M55921.813,17648.666l.4-1.666h1.918l-.375,1.666Zm-1.812,8.01,1.633-7.111h1.914l-1.641,7.111Z" transform="translate(-55912.102 -17647)" fill="#fff"/>
      <path id="Caminho_385" data-name="Caminho 385" d="M54773.6,17647c1.688,0,2.535.7,2.535,2.092a2.713,2.713,0,0,1-.4,1.521,3.7,3.7,0,0,1-1.2,1.084,1.782,1.782,0,0,1,.742.713,2.246,2.246,0,0,1,.184.967,3.119,3.119,0,0,1-.984,2.359,3.935,3.935,0,0,1-2.828.939H54768l2.238-9.676Zm-.316,1.68h-1.461l-.5,2.141h1.461a1.309,1.309,0,0,0,1.344-1.33C54774.125,17648.947,54773.844,17648.68,54773.281,17648.68Zm-.766,3.943h-1.605l-.559,2.373h1.68a1.278,1.278,0,0,0,1.023-.439,1.642,1.642,0,0,0,.383-1.139C54773.438,17652.891,54773.133,17652.623,54772.516,17652.623Z" transform="translate(-54768 -17647)" fill="#fff"/>
    </g>
    <g id="Grupo_492" data-name="Grupo 492" transform="translate(35.694)">
      <path id="Caminho_386" data-name="Caminho 386" d="M61676,17656.848l2.27-9.848h1.906l-2.27,9.848Z" transform="translate(-61664.32 -17647)" fill="#fff"/>
      <path id="Caminho_387" data-name="Caminho 387" d="M61187,17656.848l2.262-9.848h1.906l-2.262,9.848Z" transform="translate(-61178.676 -17647)" fill="#fff"/>
      <path id="Caminho_388" data-name="Caminho 388" d="M59973,17656.848l4.355-9.848h3.387l-.293,9.848h-1.969l.063-1.68h-2.82l-.754,1.68Zm5.516-8.141-2.051,4.754h2.145l.2-4.754Z" transform="translate(-59973 -17647)" fill="#fff"/>
    </g>
    <path id="Caminho_389" data-name="Caminho 389" d="M58575.656,17656.848l.484-1.633H58572l.375-1.66,3.938-6.555h2.18l-3.977,6.555h2.117l.633-2.117h1.98l-.629,2.117h2.688l-.754,1.66h-2.43l-.484,1.633Z" transform="translate(-58545.914 -17647)" fill="#fff"/>
  </g>
</svg>
