<svg xmlns="http://www.w3.org/2000/svg" xmlns:xlink="http://www.w3.org/1999/xlink" width="43.156" height="43.396" viewBox="0 0 43.156 43.396">
  <defs>
    <linearGradient id="linear-gradient" x1="0.378" y1="0.803" x2="0.378" y2="-0.098" gradientUnits="objectBoundingBox">
      <stop offset="0" stop-color="#db541e"/>
      <stop offset="1" stop-color="#f19900"/>
    </linearGradient>
  </defs>
  <path id="Caminho_372" data-name="Caminho 372" d="M42671.559,10617c6.664.045,10.879,2,12.68,4.926,2.277,3.719.492,9.049-7.148,14.529-4.16,3.008.074,4.334,2.363,7.176,2.152,2.662,3.055,6.567-.824,11.344s-9.746,5.421-16.082,5.421c-1.867,0-10.523-.017-10.82-.007-3.312,0-5.43-.1-7.266-2.686-1.391-1.964-1.656-3.9-.945-6.574l5.2-18.467-6.715-.008,4.613-15.654Zm-.473,5.5H42651.5l-1.687,5.212,6.715.007-6.793,24.118c-.609,2.01,1.773,2.34,3.672,2.34h9.359c4.281,0,9.984-1.057,10.828-5.12s-1.684-4.942-3.578-7.506-1.383-5.241,1.477-7.295C42677.2,10630.172,42681.641,10622.5,42671.086,10622.5Z" transform="translate(-42642.004 -10617)" fill="url(#linear-gradient)"/>
</svg>
