<svg id="Grupo_509" data-name="Grupo 509" xmlns="http://www.w3.org/2000/svg" width="21.198" height="20.255" viewBox="0 0 21.198 20.255">
  <path id="Caminho_401" data-name="Caminho 401" d="M27.56,24.619l-2.113-4.282-2.114,4.282a.964.964,0,0,1-.725.527l-4.726.687,3.42,3.334a.964.964,0,0,1,.277.853l-.807,4.707L25,32.5a.963.963,0,0,1,.9,0l4.227,2.222-.807-4.707a.965.965,0,0,1,.277-.853l3.42-3.334-4.726-.687A.963.963,0,0,1,27.56,24.619Z" transform="translate(-14.847 -17.196)" fill="none"/>
  <path id="Caminho_402" data-name="Caminho 402" d="M26.152,14.668a.963.963,0,0,0-.778-.656l-6.157-.895L16.464,7.539a.963.963,0,0,0-1.728,0l-2.753,5.579-6.157.895a.964.964,0,0,0-.534,1.644L9.747,20,8.695,26.131a.963.963,0,0,0,1.4,1.016L15.6,24.251l5.507,2.895a.964.964,0,0,0,1.4-1.016L21.453,20l4.455-4.343A.963.963,0,0,0,26.152,14.668Zm-6.407,4.3a.964.964,0,0,0-.277.853l.807,4.707L16.048,22.31a.963.963,0,0,0-.9,0l-4.227,2.222.807-4.707a.964.964,0,0,0-.277-.853l-3.42-3.334,4.726-.687a.964.964,0,0,0,.725-.527L15.6,10.143l2.113,4.282a.963.963,0,0,0,.725.527l4.726.687Z" transform="translate(-5.001 -7.002)" fill="#a7a7a7"/>
</svg>
