<svg xmlns="http://www.w3.org/2000/svg" width="20.427" height="20.025" viewBox="0 0 20.427 20.025">
  <g id="Grupo_508" data-name="Grupo 508" transform="translate(-2.428 -3.4)">
    <path id="Caminho_397" data-name="Caminho 397" d="M20.084,9.5h-.9l-.258.945a2.059,2.059,0,0,1-1.912,1.5,1.428,1.428,0,0,1-1.182-.559,1.529,1.529,0,0,1-.236-1.332l.15-.559H12.821l-.258.945a2.064,2.064,0,0,1-1.934,1.5,1.457,1.457,0,0,1-1.182-.559,1.529,1.529,0,0,1-.236-1.332l.15-.559H8.417a3.5,3.5,0,0,0-3.244,2.557L2.53,21.876a2.324,2.324,0,0,0,.365,2.106,2.292,2.292,0,0,0,1.848.881H6.053v.58a2.778,2.778,0,0,0,2.772,2.772H20.084a2.778,2.778,0,0,0,2.772-2.772V12.272A2.778,2.778,0,0,0,20.084,9.5ZM4.764,23.187a.626.626,0,0,1-.516-.215.694.694,0,0,1-.064-.666L6.376,14.1H19.74l-2.084,7.778a1.887,1.887,0,0,1-1.633,1.311Zm16.415,2.256a1.1,1.1,0,0,1-1.1,1.1H8.825a1.1,1.1,0,0,1-1.1-1.1v-.58H16a3.5,3.5,0,0,0,3.244-2.557l1.912-7.133v10.27Z" transform="translate(0 -4.789)" fill="#db541e"/>
    <path id="Caminho_398" data-name="Caminho 398" d="M38.157,6.387a1.259,1.259,0,0,0,1.16-.924l.3-1.139a.687.687,0,0,0-.666-.924,1.259,1.259,0,0,0-1.16.924l-.3,1.139A.693.693,0,0,0,38.157,6.387Z" transform="translate(-27.506)" fill="#db541e"/>
    <path id="Caminho_399" data-name="Caminho 399" d="M67.679,6.387a1.259,1.259,0,0,0,1.16-.924l.3-1.139a.687.687,0,0,0-.666-.924,1.259,1.259,0,0,0-1.16.924l-.322,1.139A.7.7,0,0,0,67.679,6.387Z" transform="translate(-50.668)" fill="#db541e"/>
    <path id="Caminho_400" data-name="Caminho 400" d="M38.829,42.743l-2.806,2.224-.506-.683a.993.993,0,0,0-1.593,1.188l1.112,1.491a1.013,1.013,0,0,0,.657.4h.126a1.029,1.029,0,0,0,.607-.2l3.615-2.856a.973.973,0,0,0,.152-1.39A.928.928,0,0,0,38.829,42.743Z" transform="translate(-25.078 -31.079)" fill="#db541e"/>
  </g>
</svg>
