<svg xmlns="http://www.w3.org/2000/svg" width="27.72" height="18" viewBox="0 0 27.72 18">
  <path id="Caminho_396" data-name="Caminho 396" d="M14.674,290.381a3.96,3.96,0,1,0,3.96,3.96A3.96,3.96,0,0,0,14.674,290.381Zm-9,2.16a2.88,2.88,0,0,0,0,5.76,2.9,2.9,0,1,0,0-5.76Zm18,0a2.88,2.88,0,1,0,2.88,2.88A2.823,2.823,0,0,0,23.674,292.541Zm-19.44,6.84a3.4,3.4,0,0,0-3.24,3.6v3.24h4.68v-1.8a6.457,6.457,0,0,1,2.52-5.04c-.309-.1-.375,0-.72,0Zm18,0a4.186,4.186,0,0,0-1.08,0,6.452,6.452,0,0,1,2.52,5.04v1.8h5.04v-3.6h0a3.547,3.547,0,0,0-3.6-3.24Zm-10.44,1.08a3.959,3.959,0,0,0-3.96,3.96v3.96h14.04v-3.96a3.959,3.959,0,0,0-3.96-3.96Z" transform="translate(-0.994 -290.381)" fill="#a7a7a7"/>
</svg>
