<svg xmlns="http://www.w3.org/2000/svg" width="26.978" height="27.004" viewBox="0 0 26.978 27.004">
  <path id="Subtração_4" data-name="Subtração 4" d="M14.987,28.476A13.425,13.425,0,0,1,8.149,26.6a3.344,3.344,0,0,1-1.593-2.874v-.311a3.375,3.375,0,0,1,3.372-3.371H20.046a3.375,3.375,0,0,1,3.372,3.371v.311A3.344,3.344,0,0,1,21.825,26.6,13.425,13.425,0,0,1,14.987,28.476ZM4.871,23.882l0,0a13.49,13.49,0,1,1,20.237,0l0-.46a5.063,5.063,0,0,0-5.058-5.057H9.929a5.063,5.063,0,0,0-5.058,5.057v.464ZM14.987,4.873a5.9,5.9,0,1,0,5.9,5.9A5.908,5.908,0,0,0,14.987,4.873Zm0,10.115A4.215,4.215,0,1,1,19.2,10.775,4.219,4.219,0,0,1,14.987,14.989Z" transform="translate(-1.499 -1.472)" fill="#f1baa5"/>
</svg>
