<svg id="Grupo_626" data-name="Grupo 626" xmlns="http://www.w3.org/2000/svg" width="18.402" height="16" viewBox="0 0 18.402 16">
  <path id="Caminho_311" data-name="Caminho 311" d="M263.616,39.032a1.916,1.916,0,1,0-1.916-1.916A1.917,1.917,0,0,0,263.616,39.032Zm0-2.811a.895.895,0,1,1-.895.895A.9.9,0,0,1,263.616,36.222Z" transform="translate(-252.293 -35.2)"/>
  <path id="Caminho_312" data-name="Caminho 312" d="M5.307,294.3a3.307,3.307,0,1,0,3.307,3.307A3.308,3.308,0,0,0,5.307,294.3Zm0,5.589a2.282,2.282,0,1,1,2.282-2.282A2.284,2.284,0,0,1,5.307,299.889Z" transform="translate(-2 -284.914)"/>
  <path id="Caminho_313" data-name="Caminho 313" d="M330.707,294.3a3.307,3.307,0,1,0,3.307,3.307A3.311,3.311,0,0,0,330.707,294.3Zm0,5.589a2.282,2.282,0,1,1,2.282-2.282A2.284,2.284,0,0,1,330.707,299.889Z" transform="translate(-315.613 -284.914)"/>
  <path id="Caminho_314" data-name="Caminho 314" d="M137.224,131.559a1.535,1.535,0,0,0,1.116.482c.025,0,3.191-.243,3.191-.243a1.491,1.491,0,0,0,1.409-1.648,1.475,1.475,0,0,0-1.648-1.409l-2.347.181-2.34-2.42a2.056,2.056,0,0,0-1.185-.4,2.125,2.125,0,0,0-1.728.895l-1.7,2.275a2.208,2.208,0,0,0,.533,3.162l1.862,1.358.2,3.054a1.542,1.542,0,0,0,1.529,1.438,1.6,1.6,0,0,0,1.521-1.793l-.228-3.6a1.523,1.523,0,0,0-.612-1.13l-.982-.735.395-.536Zm-1.474-2.177-1.058,1.442a.508.508,0,0,0,.105.71l1.387,1.036a.506.506,0,0,1,.2.377l.228,3.6c0,.583-.25.706-.5.706a.508.508,0,0,1-.507-.478l-.21-3.293a.515.515,0,0,0-.21-.38l-2.061-1.5a1.212,1.212,0,0,1-.3-1.731l1.7-2.275a.976.976,0,0,1,1.395-.341l2.463,2.55a.514.514,0,0,0,.406.156l2.586-.2a.513.513,0,0,1,.547.471.5.5,0,0,1-.471.551l-3.126.239a.521.521,0,0,1-.359-.159l-1.434-1.525A.583.583,0,0,0,135.749,129.382Z" transform="translate(-126.853 -122.807)"/>
</svg>
