<svg xmlns="http://www.w3.org/2000/svg" width="40" height="40" viewBox="0 0 40 40">
  <g id="Grupo_892" data-name="Grupo 892" transform="translate(-120 -429)">
    <g id="Elipse_125" data-name="Elipse 125" transform="translate(120 429)" fill="#fff" stroke="#a7a7a7" stroke-width="1.2">
      <circle cx="20" cy="20" r="20" stroke="none"/>
      <circle cx="20" cy="20" r="19.4" fill="none"/>
    </g>
    <g id="Grupo_595" data-name="Grupo 595" transform="translate(129.175 438.175)">
      <path id="Caminho_510" data-name="Caminho 510" d="M10.825,1A9.825,9.825,0,1,1,1,10.825,9.825,9.825,0,0,1,10.825,1Zm0,1.34a8.485,8.485,0,1,0,8.485,8.485A8.485,8.485,0,0,0,10.825,2.34ZM7.476,9.485A1.116,1.116,0,1,1,8.592,8.369,1.116,1.116,0,0,1,7.476,9.485Zm6.7,0a1.116,1.116,0,1,1,1.116-1.116A1.116,1.116,0,0,1,14.174,9.485ZM6.231,13.4a.67.67,0,0,1,1.149-.689,3.72,3.72,0,0,0,3.445,1.908,3.72,3.72,0,0,0,3.445-1.908.67.67,0,1,1,1.149.689,5.054,5.054,0,0,1-4.594,2.558A5.054,5.054,0,0,1,6.231,13.4Z" fill="#a7a7a7"/>
    </g>
  </g>
</svg>
