<svg xmlns="http://www.w3.org/2000/svg" width="40" height="40" viewBox="0 0 40 40">
  <g id="Grupo_891" data-name="Grupo 891" transform="translate(-70 -429)">
    <g id="Elipse_124" data-name="Elipse 124" transform="translate(70 429)" fill="#fff" stroke="#e2764b" stroke-width="1.2">
      <circle cx="20" cy="20" r="20" stroke="none"/>
      <circle cx="20" cy="20" r="19.4" fill="none"/>
    </g>
    <path id="Caminho_509" data-name="Caminho 509" d="M33.091,38.325c-4.192,0-7.591-1.223-7.591-2.733,0-1.154,1.991-2.139,4.8-2.54.186.3.361.577.521.828-2.571.254-4.412.923-4.412,1.712,0,1.006,2.991,1.822,6.68,1.822s6.68-.816,6.68-1.822c0-.789-1.841-1.458-4.411-1.712.159-.25.335-.529.521-.828,2.81.4,4.8,1.385,4.8,2.54C40.681,37.1,37.283,38.325,33.091,38.325Zm1.215-3.947s-.607.911-1.215.911-1.215-.911-1.215-.911-3.34-5.162-3.946-7.627a5.465,5.465,0,1,1,10.322,0C37.645,29.216,34.305,34.378,34.305,34.378ZM33.091,22.84a2.125,2.125,0,1,0,2.125,2.125A2.125,2.125,0,0,0,33.091,22.84Z" transform="translate(56.5 420.5)" fill="#db541e" fill-rule="evenodd"/>
  </g>
</svg>
