<svg xmlns="http://www.w3.org/2000/svg" width="15.417" height="18.433" viewBox="0 0 15.417 18.433">
  <g id="BELL_1_" transform="translate(-9 -5)">
    <g id="BELL" transform="translate(9 5)">
      <g id="Grupo_517" data-name="Grupo 517" transform="translate(0)">
        <path id="Caminho_404" data-name="Caminho 404" d="M23.411,18.406A1,1,0,0,1,22.406,17.4V10.7a4.692,4.692,0,0,0-4.692-4.692,1.005,1.005,0,0,0-2.011,0A4.692,4.692,0,0,0,11.011,10.7v6.7a1,1,0,0,1-1.005,1.005,1.005,1.005,0,1,0,0,2.011H23.411a1.005,1.005,0,0,0,0-2.011Zm-6.7,5.027a2.011,2.011,0,0,0,2.011-2.011H14.7A2.011,2.011,0,0,0,16.708,23.433Z" transform="translate(-9 -5)" fill="#fff" fill-rule="evenodd"/>
      </g>
    </g>
  </g>
</svg>
