<svg xmlns="http://www.w3.org/2000/svg" xmlns:xlink="http://www.w3.org/1999/xlink" width="41.528" height="48.05" viewBox="0 0 41.528 48.05">
  <defs>
    <filter id="Caminho_114" x="0" y="0" width="41.528" height="48.05" filterUnits="userSpaceOnUse">
      <feOffset input="SourceAlpha"/>
      <feGaussianBlur stdDeviation="1.5" result="blur"/>
      <feFlood flood-opacity="0.451"/>
      <feComposite operator="in" in2="blur"/>
      <feComposite in="SourceGraphic"/>
    </filter>
  </defs>
  <g id="Grupo_890" data-name="Grupo 890" transform="translate(-8707 -1626.208)">
    <g transform="matrix(1, 0, 0, 1, 8707, 1626.21)" filter="url(#Caminho_114)">
      <path id="Caminho_114-2" data-name="Caminho 114" stroke="#fff" d="M4.353,4.451a15.344,15.344,0,0,1,21.7,21.7L15.2,37,4.353,26.15A15.762,15.762,0,0,1,4.353,4.451Z" fill="#db541e" transform="translate(5.47 5.55)" stroke-linecap="round" stroke-linejoin="round" stroke-width="2" fill-rule="evenodd"/>
    </g>
    <path id="Caminho_647" data-name="Caminho 647" d="M10.12,0a.251.251,0,0,1-.26-.2l-.6-1.96q-.04-.08-.1-.08H4.24q-.06,0-.1.08L3.56-.2A.251.251,0,0,1,3.3,0H.76A.224.224,0,0,1,.58-.07.219.219,0,0,1,.56-.28L4.88-13.8a.251.251,0,0,1,.26-.2H8.28a.251.251,0,0,1,.26.2L12.86-.28a.223.223,0,0,1,.02.1q0,.18-.22.18ZM4.86-4.54q-.02.12.08.12H8.46q.12,0,.08-.12l-1.8-5.94q-.02-.08-.06-.07t-.06.07Z" transform="translate(8720.456 1654)" fill="#fff"/>
  </g>
</svg>
