<svg xmlns="http://www.w3.org/2000/svg" width="38" height="38" viewBox="0 0 38 38">
  <g id="Grupo_892" data-name="Grupo 892" transform="translate(-16 -694)">
    <path id="Caminho_647" data-name="Caminho 647" d="M19,0A19,19,0,1,1,0,19,19,19,0,0,1,19,0Z" transform="translate(16 694)" fill="#eee"/>
    <path id="Caminho_600" data-name="Caminho 600" d="M87.238,7.473H85.561V5.03a5.03,5.03,0,1,0-10.059,0V7.473H73.825a1.006,1.006,0,0,0-1.006,1.006V17.55a1.006,1.006,0,0,0,1.006,1.006H87.238a1.006,1.006,0,0,0,1.006-1.006V8.479A1.006,1.006,0,0,0,87.238,7.473ZM77.513,5.03a3.018,3.018,0,1,1,6.036,0V7.473H77.513Z" transform="translate(-45.819 704)"/>
  </g>
</svg>
