<svg xmlns="http://www.w3.org/2000/svg" width="38" height="38" viewBox="0 0 38 38">
  <g id="Grupo_891" data-name="Grupo 891" transform="translate(-16 -634)">
    <rect id="Retângulo_1593" data-name="Retângulo 1593" width="38" height="38" rx="19" transform="translate(16 634)" fill="#eee"/>
    <g id="globe" transform="translate(24 642)">
      <g id="Grupo_774" data-name="Grupo 774">
        <path id="Caminho_599" data-name="Caminho 599" d="M10.557,0A10.557,10.557,0,1,0,21.114,10.557,10.569,10.569,0,0,0,10.557,0Zm0,19.354A8.765,8.765,0,0,1,4.4,16.829V15.4a1.655,1.655,0,0,1,.4-1,2.038,2.038,0,0,0,.476-1.2c0-.839-.757-.924-1.165-.97a1.224,1.224,0,0,1-.724-.221,2.783,2.783,0,0,1-.365-.566,3.391,3.391,0,0,0-1.238-1.429,8.8,8.8,0,0,1,8.77-8.251c.241,0,.479.017.715.036a.891.891,0,0,0-.147.093.44.44,0,0,0,.018.64,1.174,1.174,0,0,1,.195.211c-.01.021-.091.159-.541.387a3.185,3.185,0,0,0-1.729,1.95,1.072,1.072,0,0,0,.3.952.44.44,0,0,0,.311.129,3.432,3.432,0,0,0,1.54-.444,3.34,3.34,0,0,1,1.54-.436c1.726,0,3.079.387,3.079.88,0,.181-.056.236-.078.257-.216.213-.952.2-1.6.189-.171,0-.347-.006-.523-.006a1.9,1.9,0,0,1-1-.189,2.4,2.4,0,0,0-1.2-.251,4.254,4.254,0,0,0-2.95,1.009A2.456,2.456,0,0,0,7.895,9.31c.012.131.023.254.023.367,0,.866.885,1.32,1.76,1.32a5.616,5.616,0,0,1,2.639.44,2.547,2.547,0,0,0,.264,1.1,1.535,1.535,0,0,1,.176.661.439.439,0,0,1-.121.355,1.384,1.384,0,0,0-.319.964,3.793,3.793,0,0,0,.993,2.054.441.441,0,0,0,.327.145.43.43,0,0,0,.109-.014c.259-.067,2.53-.692,2.53-2.186a.838.838,0,0,1,.366-.786,1.2,1.2,0,0,0,.513-.973,4.943,4.943,0,0,1,1.206-1.9.44.44,0,0,0-.056-.643,5.6,5.6,0,0,1-1.6-1.965,2.516,2.516,0,0,1,.582.424.733.733,0,0,0,.566.209,2.289,2.289,0,0,0,1.181-.653,8.769,8.769,0,0,1-8.474,11.13Z"/>
      </g>
    </g>
  </g>
</svg>
