<svg xmlns="http://www.w3.org/2000/svg" xmlns:xlink="http://www.w3.org/1999/xlink" width="141" height="43" viewBox="0 0 141 43">
  <defs>
    <filter id="Ret창ngulo_1503" x="0" y="0" width="141" height="43" filterUnits="userSpaceOnUse">
      <feOffset input="SourceAlpha"/>
      <feGaussianBlur stdDeviation="1.5" result="blur"/>
      <feFlood flood-opacity="0.451"/>
      <feComposite operator="in" in2="blur"/>
      <feComposite in="SourceGraphic"/>
    </filter>
  </defs>
  <g id="Grupo_554" data-name="Grupo 554" transform="translate(-29.5 -455.5)">
    <g transform="matrix(1, 0, 0, 1, 29.5, 455.5)" filter="url(#Ret창ngulo_1503)">
      <rect id="Ret창ngulo_1503-2" data-name="Ret창ngulo 1503" width="132" height="34" rx="17" transform="translate(4.5 4.5)" fill="#fff"/>
    </g>
    <text id="Recentralizar" transform="translate(111 482)" fill="#db541e" font-size="12" font-family="Barlow-SemiBold, Barlow" font-weight="600"><tspan x="-35.238" y="0">Recentralizar</tspan></text>
    <g id="Caminho_418" data-name="Caminho 418" transform="translate(46 469)" fill="none">
      <path d="M6.482.992a1.71,1.71,0,0,1,3.1,0L15.8,12.908c.69,1.324-.442,4.067-3.018,2.42s-4.868-3.294-4.868-3.294-1.792,1.431-4.794,3.351S-.423,14.232.268,12.908Z" stroke="none"/>
      <path d="M 8.034453392028809 2.341477394104004 L 2.143558502197266 13.63633155822754 C 4.947717666625977 11.836669921875 6.65119743347168 10.48438739776611 6.667523384094238 10.4713716506958 L 7.851503372192383 9.526201248168945 L 9.082053184509277 10.40984153747559 C 9.104593276977539 10.4260311126709 11.36463356018066 12.04668140411377 13.86128330230713 13.64351177215576 C 13.89669895172119 13.66616249084473 13.9298267364502 13.68623828887939 13.96064567565918 13.70400905609131 L 8.034453392028809 2.341477394104004 M 8.034457206726074 1.9073486328125e-06 C 8.637941360473633 1.9073486328125e-06 9.241423606872559 0.3307514190673828 9.586433410644531 0.9922513961791992 L 15.80124378204346 12.90816116333008 C 16.34012031555176 13.94136428833008 15.76804447174072 15.83981323242188 14.26655292510986 15.83981323242188 C 13.84433174133301 15.83981323242188 13.34890651702881 15.68988513946533 12.78367328643799 15.32837200164795 C 10.20838356018066 13.68124198913574 7.915403366088867 12.03432178497314 7.915403366088867 12.03432178497314 C 7.915403366088867 12.03432178497314 6.123433113098145 13.46505165100098 3.120963096618652 15.38539123535156 C 2.439249992370605 15.82140636444092 1.884283065795898 15.99999713897705 1.441941261291504 15.99999713897705 C -0.06392478942871094 15.99999713897705 -0.2659893035888672 13.93134498596191 0.2676630020141602 12.90816116333008 L 6.482473373413086 0.9922513961791992 C 6.827487945556641 0.3307514190673828 7.430973052978516 1.9073486328125e-06 8.034457206726074 1.9073486328125e-06 Z" stroke="none" fill="#db541e"/>
    </g>
  </g>
</svg>
