<svg id="Grupo_526" data-name="Grupo 526" xmlns="http://www.w3.org/2000/svg" width="30.466" height="22.386" viewBox="0 0 30.466 22.386">
  <path id="Caminho_410" data-name="Caminho 410" d="M32.61,27.714,30.5,20.688a1.285,1.285,0,0,0-1.474-.889l-5.107,1-5.1-1a1.281,1.281,0,0,0-1.474.889l-2.126,7.081c-3.841.589-6.344,1.548-6.344,2.63,0,1.789,6.822,3.241,15.233,3.241S39.336,32.188,39.336,30.4C39.336,29.28,36.669,28.3,32.61,27.714Z" transform="translate(-8.87 -19.775)" fill="#a7a7a7"/>
  <path id="Caminho_411" data-name="Caminho 411" d="M41.688,61.925a1.811,1.811,0,0,0-1.656-.67,66.835,66.835,0,0,1-17.092.007,1.819,1.819,0,0,0-1.952,2.426l.1.285A6.477,6.477,0,0,0,25.21,67.91l.459.144a4.628,4.628,0,0,0,4.618-1.1,1.7,1.7,0,0,1,2.381,0,4.616,4.616,0,0,0,4.618,1.1l.459-.144a6.46,6.46,0,0,0,4.118-3.937l.107-.289h0A1.807,1.807,0,0,0,41.688,61.925ZM26.5,65.773c-1.318-.233-2.3-.9-2.2-1.5s1.259-.889,2.578-.656,2.3.9,2.2,1.5S27.818,66.006,26.5,65.773Zm9.963,0c-1.318.233-2.474-.063-2.578-.656s.878-1.267,2.2-1.5,2.474.063,2.578.656S37.78,65.539,36.462,65.773Z" transform="translate(-16.429 -45.883)" fill="#a7a7a7"/>
</svg>
