<svg xmlns="http://www.w3.org/2000/svg" width="16.027" height="18.934" viewBox="0 0 16.027 18.934">
  <g id="Grupo_585" data-name="Grupo 585" transform="translate(0 0)">
    <path id="Caminho_492" data-name="Caminho 492" d="M23.095,10.221V8.736h.4a.77.77,0,1,0,0-1.54H20.072a.77.77,0,1,0,0,1.54h.4v1.486a8.013,8.013,0,1,0,2.623,0ZM21.783,24.077a5.96,5.96,0,1,1,5.96-5.96A5.96,5.96,0,0,1,21.783,24.077Z" transform="translate(-13.77 -7.196)" fill="#fff"/>
    <path id="Caminho_493" data-name="Caminho 493" d="M50.729,41.243H48.5V37.821a.456.456,0,1,0-.913,0v4.335h3.137a.456.456,0,1,0,0-.913Z" transform="translate(-40.111 -30.692)" fill="#fff"/>
  </g>
</svg>
