<svg xmlns="http://www.w3.org/2000/svg" width="18.636" height="15.498" viewBox="0 0 18.636 15.498">
  <g id="Grupo_587" data-name="Grupo 587" transform="translate(0)">
    <path id="Caminho_498" data-name="Caminho 498" d="M2.5,61.1a9.424,9.424,0,0,0,2.3,5.571L6.4,65.063A7.017,7.017,0,0,1,4.756,61.1Z" transform="translate(-2.5 -51.174)" fill="#fff"/>
    <path id="Caminho_499" data-name="Caminho 499" d="M2.5,32.252H4.756A6.927,6.927,0,0,1,6.4,28.289L4.8,26.7A9.308,9.308,0,0,0,2.5,32.252Z" transform="translate(-2.5 -23.522)" fill="#fff"/>
    <path id="Caminho_500" data-name="Caminho 500" d="M24.252,10.5A9.21,9.21,0,0,0,18.7,12.815L20.289,14.4a7.061,7.061,0,0,1,3.963-1.648Z" transform="translate(-15.522 -10.5)" fill="#fff"/>
    <path id="Caminho_501" data-name="Caminho 501" d="M57.887,12.285c.02-.02.039-.02.059-.039A9.3,9.3,0,0,0,53.1,10.5v2.256a6.741,6.741,0,0,1,2.923.922C56.572,13.266,57.2,12.8,57.887,12.285Z" transform="translate(-43.174 -10.5)" fill="#fff"/>
    <path id="Caminho_502" data-name="Caminho 502" d="M77.6,65.063l1.609,1.589A9.131,9.131,0,0,0,81.5,61.1H79.248A7.017,7.017,0,0,1,77.6,65.063Z" transform="translate(-62.867 -51.174)" fill="#fff"/>
    <path id="Caminho_503" data-name="Caminho 503" d="M82.222,35.145h2.256A9.447,9.447,0,0,0,82.752,30.3c-.02.02-.02.039-.039.059-.51.687-1,1.314-1.412,1.864A7.012,7.012,0,0,1,82.222,35.145Z" transform="translate(-65.842 -26.416)" fill="#fff"/>
    <path id="Caminho_504" data-name="Caminho 504" d="M46.7,24.577a.336.336,0,0,0-.471-.471C44.488,25.42,42,27.3,40.662,28.363a2.482,2.482,0,0,0-.549-.059,2.413,2.413,0,1,0,2.413,2.413,2.482,2.482,0,0,0-.059-.549C43.487,28.833,45.39,26.322,46.7,24.577Z" transform="translate(-30.795 -21.379)" fill="#fff"/>
  </g>
</svg>
