<svg xmlns="http://www.w3.org/2000/svg" width="18.213" height="18.338" viewBox="0 0 18.213 18.338">
  <path id="União_52" data-name="União 52" d="M1.364-76.663A1.376,1.376,0,0,1,0-78.027a1.376,1.376,0,0,1,1.364-1.364H16.824a1.4,1.4,0,0,1,1.39,1.364,1.376,1.376,0,0,1-1.364,1.364Zm0-7.791A1.376,1.376,0,0,1,0-85.819a1.377,1.377,0,0,1,1.364-1.365H12.481a1.382,1.382,0,0,1,1.39,1.365,1.376,1.376,0,0,1-1.364,1.364Zm0-7.816A1.376,1.376,0,0,1,0-93.635,1.377,1.377,0,0,1,1.364-95H16.824a1.4,1.4,0,0,1,1.39,1.365,1.376,1.376,0,0,1-1.364,1.364Z" transform="translate(0 95)" fill="#fff"/>
</svg>
