<svg xmlns="http://www.w3.org/2000/svg" width="21.778" height="18" viewBox="0 0 21.778 18">
  <g id="Grupo_811" data-name="Grupo 811" transform="translate(-2.521 -10.7)">
    <path id="Caminho_603" data-name="Caminho 603" d="M60.972,46.971a.568.568,0,0,1,.78,0l1.078,1.055.963-.963-2.064-3.256a.429.429,0,0,0-.734,0L59,46.971l.757,1.192Z" transform="translate(-43.528 -25.356)" fill="#db541e"/>
    <path id="Caminho_604" data-name="Caminho 604" d="M72.383,68.266,69.013,62.9l-1.169,1.169a.528.528,0,0,1-.78,0l-1.078-1.078L65,64l2.224,3.554a1.618,1.618,0,0,1,.161,1.376h4.632A.431.431,0,0,0,72.383,68.266Z" transform="translate(-48.152 -40.231)" fill="#db541e"/>
    <path id="Caminho_605" data-name="Caminho 605" d="M24.915,21.546l1.376-1.376a.568.568,0,0,1,.78,0l1.376,1.376,1.238-1.238-2.476-3.967V14.782h3.279a.55.55,0,0,0,.459-.275.541.541,0,0,0-.023-.527l-.848-1.238.848-1.238a.489.489,0,0,0,.023-.527.522.522,0,0,0-.459-.275H26.7a.509.509,0,0,0-.5.5v5.113l-2.5,3.99Z" transform="translate(-16.322 0)" fill="#db541e"/>
    <path id="Caminho_606" data-name="Caminho 606" d="M13.981,56.8l-1.445,1.445a.568.568,0,0,1-.78,0l-1.376-1.376L9.006,58.245a.6.6,0,0,1-.39.161.65.65,0,0,1-.39-.161L6.758,56.8l-4.15,6.627a.518.518,0,0,0,.436.8H17.7a.518.518,0,0,0,.436-.8Z" transform="translate(0 -35.529)" fill="#db541e"/>
  </g>
</svg>
