<svg id="Grupo_282" data-name="Grupo 282" xmlns="http://www.w3.org/2000/svg" width="15.385" height="26" viewBox="0 0 15.385 26">
  <path id="Caminho_298" data-name="Caminho 298" d="M23.385,16.962a.962.962,0,0,0-1.923,0,5.769,5.769,0,0,1-11.538,0A.908.908,0,0,0,8.962,16,.908.908,0,0,0,8,16.962a7.686,7.686,0,0,0,6.731,7.6v2.019H11.846a.962.962,0,1,0,0,1.923h7.692a.962.962,0,1,0,0-1.923H16.654V24.558A7.686,7.686,0,0,0,23.385,16.962Z" transform="translate(-8 -2.5)" fill="#a7a7a7"/>
  <path id="Caminho_299" data-name="Caminho 299" d="M15.808,21.269a4.761,4.761,0,0,0,4.808-4.808V7.808a4.808,4.808,0,0,0-9.615,0v8.654A4.761,4.761,0,0,0,15.808,21.269ZM12.923,7.808a2.885,2.885,0,0,1,5.769,0v8.654a2.885,2.885,0,0,1-5.769,0Z" transform="translate(-8.115 -3)" fill="#a7a7a7"/>
</svg>
